<svg width="73" height="31" viewBox="0 0 73 31" fill="none" xmlns="http://www.w3.org/2000/svg">
<path d="M3.09091 10.7308V20.2692C3.09091 20.5855 2.92808 20.8887 2.63826 21.1123C2.34843 21.3359 1.95533 21.4615 1.54545 21.4615C1.13557 21.4615 0.742482 21.3359 0.452653 21.1123C0.162825 20.8887 0 20.5855 0 20.2692V10.7308C0 10.4146 0.162825 10.1113 0.452653 9.88768C0.742482 9.66408 1.13557 9.53846 1.54545 9.53846C1.95533 9.53846 2.34843 9.66408 2.63826 9.88768C2.92808 10.1113 3.09091 10.4146 3.09091 10.7308ZM9.27273 0C8.86285 0 8.46976 0.125618 8.17993 0.349219C7.8901 0.57282 7.72727 0.876088 7.72727 1.19231V29.8077C7.72727 30.1239 7.8901 30.4272 8.17993 30.6508C8.46976 30.8744 8.86285 31 9.27273 31C9.68261 31 10.0757 30.8744 10.3655 30.6508C10.6554 30.4272 10.8182 30.1239 10.8182 29.8077V1.19231C10.8182 0.876088 10.6554 0.57282 10.3655 0.349219C10.0757 0.125618 9.68261 0 9.27273 0ZM17 4.76923C16.5901 4.76923 16.197 4.89485 15.9072 5.11845C15.6174 5.34205 15.4545 5.64532 15.4545 5.96154V25.0385C15.4545 25.3547 15.6174 25.658 15.9072 25.8816C16.197 26.1052 16.5901 26.2308 17 26.2308C17.4099 26.2308 17.803 26.1052 18.0928 25.8816C18.3826 25.658 18.5455 25.3547 18.5455 25.0385V5.96154C18.5455 5.64532 18.3826 5.34205 18.0928 5.11845C17.803 4.89485 17.4099 4.76923 17 4.76923ZM24.7273 9.53846C24.3174 9.53846 23.9243 9.66408 23.6345 9.88768C23.3446 10.1113 23.1818 10.4146 23.1818 10.7308V20.2692C23.1818 20.5855 23.3446 20.8887 23.6345 21.1123C23.9243 21.3359 24.3174 21.4615 24.7273 21.4615C25.1372 21.4615 25.5302 21.3359 25.8201 21.1123C26.1099 20.8887 26.2727 20.5855 26.2727 20.2692V10.7308C26.2727 10.4146 26.1099 10.1113 25.8201 9.88768C25.5302 9.66408 25.1372 9.53846 24.7273 9.53846ZM32.4545 7.15385C32.0447 7.15385 31.6516 7.27946 31.3617 7.50307C31.0719 7.72667 30.9091 8.02993 30.9091 8.34615V22.6538C30.9091 22.9701 31.0719 23.2733 31.3617 23.4969C31.6516 23.7205 32.0447 23.8462 32.4545 23.8462C32.8644 23.8462 33.2575 23.7205 33.5473 23.4969C33.8372 23.2733 34 22.9701 34 22.6538V8.34615C34 8.02993 33.8372 7.72667 33.5473 7.50307C33.2575 7.27946 32.8644 7.15385 32.4545 7.15385Z" fill="#858585"/>
<path d="M42.0909 10.7308V20.2692C42.0909 20.5855 41.9281 20.8887 41.6383 21.1123C41.3484 21.3359 40.9553 21.4615 40.5455 21.4615C40.1356 21.4615 39.7425 21.3359 39.4527 21.1123C39.1628 20.8887 39 20.5855 39 20.2692V10.7308C39 10.4145 39.1628 10.1113 39.4527 9.88768C39.7425 9.66408 40.1356 9.53846 40.5455 9.53846C40.9553 9.53846 41.3484 9.66408 41.6383 9.88768C41.9281 10.1113 42.0909 10.4145 42.0909 10.7308ZM48.2727 0C47.8628 0 47.4698 0.125618 47.1799 0.349219C46.8901 0.57282 46.7273 0.876088 46.7273 1.19231V29.8077C46.7273 30.1239 46.8901 30.4272 47.1799 30.6508C47.4698 30.8744 47.8628 31 48.2727 31C48.6826 31 49.0757 30.8744 49.3655 30.6508C49.6554 30.4272 49.8182 30.1239 49.8182 29.8077V1.19231C49.8182 0.876088 49.6554 0.57282 49.3655 0.349219C49.0757 0.125618 48.6826 0 48.2727 0ZM56 4.76923C55.5901 4.76923 55.197 4.89485 54.9072 5.11845C54.6174 5.34205 54.4545 5.64532 54.4545 5.96154V25.0385C54.4545 25.3547 54.6174 25.658 54.9072 25.8816C55.197 26.1052 55.5901 26.2308 56 26.2308C56.4099 26.2308 56.803 26.1052 57.0928 25.8816C57.3826 25.658 57.5455 25.3547 57.5455 25.0385V5.96154C57.5455 5.64532 57.3826 5.34205 57.0928 5.11845C56.803 4.89485 56.4099 4.76923 56 4.76923ZM63.7273 9.53846C63.3174 9.53846 62.9243 9.66408 62.6345 9.88768C62.3446 10.1113 62.1818 10.4145 62.1818 10.7308V20.2692C62.1818 20.5855 62.3446 20.8887 62.6345 21.1123C62.9243 21.3359 63.3174 21.4615 63.7273 21.4615C64.1372 21.4615 64.5302 21.3359 64.8201 21.1123C65.1099 20.8887 65.2727 20.5855 65.2727 20.2692V10.7308C65.2727 10.4145 65.1099 10.1113 64.8201 9.88768C64.5302 9.66408 64.1372 9.53846 63.7273 9.53846ZM71.4545 7.15385C71.0447 7.15385 70.6516 7.27946 70.3617 7.50307C70.0719 7.72667 69.9091 8.02993 69.9091 8.34615V22.6538C69.9091 22.9701 70.0719 23.2733 70.3617 23.4969C70.6516 23.7205 71.0447 23.8462 71.4545 23.8462C71.8644 23.8462 72.2575 23.7205 72.5473 23.4969C72.8372 23.2733 73 22.9701 73 22.6538V8.34615C73 8.02993 72.8372 7.72667 72.5473 7.50307C72.2575 7.27946 71.8644 7.15385 71.4545 7.15385Z" fill="#858585"/>
</svg>
