<svg width="77" height="77" viewBox="0 0 77 77" fill="none" xmlns="http://www.w3.org/2000/svg">
<g id="file-text">
<path id="Vector" d="M44.9173 6.41675H19.2507C17.5488 6.41675 15.9167 7.09279 14.7134 8.29615C13.51 9.4995 12.834 11.1316 12.834 12.8334V64.1667C12.834 65.8686 13.51 67.5007 14.7134 68.704C15.9167 69.9074 17.5488 70.5834 19.2507 70.5834H57.7507C59.4525 70.5834 61.0846 69.9074 62.2879 68.704C63.4913 67.5007 64.1673 65.8686 64.1673 64.1667V25.6667L44.9173 6.41675Z" stroke="#858585" stroke-width="4" stroke-linecap="round" stroke-linejoin="round"/>
<path id="Vector_2" d="M44.916 6.41675V25.6667H64.166" stroke="#858585" stroke-width="4" stroke-linecap="round" stroke-linejoin="round"/>
<path id="Vector_3" d="M51.3327 41.7083H25.666" stroke="#858585" stroke-width="4" stroke-linecap="round" stroke-linejoin="round"/>
<path id="Vector_4" d="M51.3327 54.5417H25.666" stroke="#858585" stroke-width="4" stroke-linecap="round" stroke-linejoin="round"/>
<path id="Vector_5" d="M32.0827 28.875H28.8743H25.666" stroke="#858585" stroke-width="6" stroke-linecap="round" stroke-linejoin="round"/>
</g>
</svg>
