<?xml version="1.0" standalone="no"?>
<!DOCTYPE svg PUBLIC "-//W3C//DTD SVG 20010904//EN"
 "http://www.w3.org/TR/2001/REC-SVG-20010904/DTD/svg10.dtd">
<svg version="1.0" xmlns="http://www.w3.org/2000/svg"
 width="30.000000pt" height="30.000000pt" viewBox="0 0 30.000000 30.000000"
 preserveAspectRatio="xMidYMid meet">

<g transform="translate(0.000000,30.000000) scale(0.100000,-0.100000)"
fill="#7D7D7D" stroke="none">
<path d="M120 160 c0 -89 0 -90 25 -90 25 0 25 1 25 90 0 89 0 90 -25 90 -25
0 -25 -1 -25 -90z"/>
<path d="M10 130 l0 -100 125 0 c77 0 125 4 125 10 0 6 -45 10 -115 10 l-115
0 0 90 c0 53 -4 90 -10 90 -6 0 -10 -40 -10 -100z"/>
<path d="M190 150 c0 -79 0 -80 25 -80 25 0 25 1 25 80 0 79 0 80 -25 80 -25
0 -25 -1 -25 -80z"/>
<path d="M50 130 c0 -57 1 -60 25 -60 24 0 25 3 25 60 0 57 -1 60 -25 60 -24
0 -25 -3 -25 -60z"/>
</g>
</svg>
