<svg width="40" height="40" viewBox="0 0 40 40" fill="none" xmlns="http://www.w3.org/2000/svg">
<g id="mdi:camera">
<path id="Vector" d="M6.33333 6.33333H11.3333L14.6667 3H24.6667L28 6.33333H33C33.8841 6.33333 34.7319 6.68452 35.357 7.30964C35.9821 7.93477 36.3333 8.78261 36.3333 9.66667V29.6667C36.3333 30.5507 35.9821 31.3986 35.357 32.0237C34.7319 32.6488 33.8841 33 33 33H6.33333C5.44928 33 4.60143 32.6488 3.97631 32.0237C3.35119 31.3986 3 30.5507 3 29.6667V9.66667C3 8.78261 3.35119 7.93477 3.97631 7.30964C4.60143 6.68452 5.44928 6.33333 6.33333 6.33333ZM19.6667 11.3333C17.4565 11.3333 15.3369 12.2113 13.7741 13.7741C12.2113 15.3369 11.3333 17.4565 11.3333 19.6667C11.3333 21.8768 12.2113 23.9964 13.7741 25.5592C15.3369 27.122 17.4565 28 19.6667 28C21.8768 28 23.9964 27.122 25.5592 25.5592C27.122 23.9964 28 21.8768 28 19.6667C28 17.4565 27.122 15.3369 25.5592 13.7741C23.9964 12.2113 21.8768 11.3333 19.6667 11.3333ZM19.6667 14.6667C20.9927 14.6667 22.2645 15.1934 23.2022 16.1311C24.1399 17.0688 24.6667 18.3406 24.6667 19.6667C24.6667 20.9927 24.1399 22.2645 23.2022 23.2022C22.2645 24.1399 20.9927 24.6667 19.6667 24.6667C18.3406 24.6667 17.0688 24.1399 16.1311 23.2022C15.1934 22.2645 14.6667 20.9927 14.6667 19.6667C14.6667 18.3406 15.1934 17.0688 16.1311 16.1311C17.0688 15.1934 18.3406 14.6667 19.6667 14.6667Z" fill="#FFCC00"/>
</g>
</svg>
