<svg width="20" height="20" viewBox="0 0 20 20" fill="none" xmlns="http://www.w3.org/2000/svg">
<g id="x-circle" clip-path="url(#clip0_2057_2792)">
<g id="Icon">
<path d="M10.0003 18.3334C14.6027 18.3334 18.3337 14.6025 18.3337 10.0001C18.3337 5.39771 14.6027 1.66675 10.0003 1.66675C5.39795 1.66675 1.66699 5.39771 1.66699 10.0001C1.66699 14.6025 5.39795 18.3334 10.0003 18.3334Z" fill="#FFCC00"/>
<path d="M12.5003 7.50008L7.50033 12.5001M7.50033 7.50008L12.5003 12.5001M18.3337 10.0001C18.3337 14.6025 14.6027 18.3334 10.0003 18.3334C5.39795 18.3334 1.66699 14.6025 1.66699 10.0001C1.66699 5.39771 5.39795 1.66675 10.0003 1.66675C14.6027 1.66675 18.3337 5.39771 18.3337 10.0001Z" stroke="white" stroke-width="2" stroke-linecap="round" stroke-linejoin="round"/>
</g>
</g>
<defs>
<clipPath id="clip0_2057_2792">
<rect width="20" height="20" fill="white"/>
</clipPath>
</defs>
</svg>
