<svg width="23" height="23" viewBox="0 0 23 23" fill="none" xmlns="http://www.w3.org/2000/svg">
<g id="Copy to clipboard">
<path id="Vector" d="M19.9785 8.10693H10.9785C9.87395 8.10693 8.97852 9.01603 8.97852 10.1375V19.2749C8.97852 20.3963 9.87395 21.3054 10.9785 21.3054H19.9785C21.0831 21.3054 21.9785 20.3963 21.9785 19.2749V10.1375C21.9785 9.01603 21.0831 8.10693 19.9785 8.10693Z" stroke="#333333" stroke-width="2" stroke-linecap="round" stroke-linejoin="round"/>
<path id="Vector_2" d="M4.97852 14.1985H3.97852C3.44808 14.1985 2.93937 13.9845 2.5643 13.6037C2.18923 13.2229 1.97852 12.7065 1.97852 12.1679V3.03053C1.97852 2.492 2.18923 1.97553 2.5643 1.59473C2.93937 1.21393 3.44808 1 3.97852 1H12.9785C13.5089 1 14.0177 1.21393 14.3927 1.59473C14.7678 1.97553 14.9785 2.492 14.9785 3.03053V4.0458" stroke="#333333" stroke-width="2" stroke-linecap="round" stroke-linejoin="round"/>
</g>
</svg>
