<svg width="17" height="16" viewBox="0 0 17 16" fill="none" xmlns="http://www.w3.org/2000/svg">
<g id="trash-01">
<path id="Icon" d="M11.1667 4.00016V3.46683C11.1667 2.72009 11.1667 2.34672 11.0213 2.06151C10.8935 1.81063 10.6895 1.60665 10.4387 1.47882C10.1534 1.3335 9.78007 1.3335 9.03333 1.3335H7.96667C7.21993 1.3335 6.84656 1.3335 6.56135 1.47882C6.31046 1.60665 6.10649 1.81063 5.97866 2.06151C5.83333 2.34672 5.83333 2.72009 5.83333 3.46683V4.00016M7.16667 7.66683V11.0002M9.83333 7.66683V11.0002M2.5 4.00016H14.5M13.1667 4.00016V11.4668C13.1667 12.5869 13.1667 13.147 12.9487 13.5748C12.7569 13.9511 12.451 14.2571 12.0746 14.4488C11.6468 14.6668 11.0868 14.6668 9.96667 14.6668H7.03333C5.91323 14.6668 5.35318 14.6668 4.92535 14.4488C4.54903 14.2571 4.24307 13.9511 4.05132 13.5748C3.83333 13.147 3.83333 12.5869 3.83333 11.4668V4.00016" stroke="black" stroke-width="1.6" stroke-linecap="round" stroke-linejoin="round"/>
</g>
</svg>
