<svg width="21" height="22" viewBox="0 0 21 22" fill="none" xmlns="http://www.w3.org/2000/svg">
<g id="Remove Icon">
<path id="Vector" d="M1.97852 5H3.97852H19.9785" stroke="#333333" stroke-width="2" stroke-linecap="round" stroke-linejoin="round"/>
<path id="Vector_2" d="M17.9785 5V19C17.9785 19.5304 17.7678 20.0391 17.3927 20.4142C17.0177 20.7893 16.5089 21 15.9785 21H5.97852C5.44808 21 4.93937 20.7893 4.5643 20.4142C4.18923 20.0391 3.97852 19.5304 3.97852 19V5M6.97852 5V3C6.97852 2.46957 7.18923 1.96086 7.5643 1.58579C7.93938 1.21071 8.44808 1 8.97852 1H12.9785C13.5089 1 14.0177 1.21071 14.3927 1.58579C14.7678 1.96086 14.9785 2.46957 14.9785 3V5" stroke="#333333" stroke-width="2" stroke-linecap="round" stroke-linejoin="round"/>
<path id="Vector_3" d="M8.97852 10V16" stroke="#333333" stroke-width="2" stroke-linecap="round" stroke-linejoin="round"/>
<path id="Vector_4" d="M12.9785 10V16" stroke="#333333" stroke-width="2" stroke-linecap="round" stroke-linejoin="round"/>
</g>
</svg>
