<svg width="18" height="18" viewBox="0 0 18 18" fill="none" xmlns="http://www.w3.org/2000/svg">
<g id="Group 14">
<path id="Vector" d="M8.15614 2.71252H2.59025C2.16849 2.71252 1.764 2.88264 1.46577 3.18544C1.16754 3.48824 1 3.89893 1 4.32716V15.6296C1 16.0579 1.16754 16.4686 1.46577 16.7714C1.764 17.0742 2.16849 17.2443 2.59025 17.2443H13.722C14.1438 17.2443 14.5483 17.0742 14.8465 16.7714C15.1447 16.4686 15.3123 16.0579 15.3123 15.6296V9.9784" stroke="#333333" stroke-width="1.5" stroke-linecap="round" stroke-linejoin="round"/>
<path id="Vector_2" d="M14.1203 1.5016C14.4366 1.18043 14.8657 1 15.313 1C15.7603 1 16.1894 1.18043 16.5057 1.5016C16.822 1.82278 16.9997 2.25838 16.9997 2.71258C16.9997 3.16679 16.822 3.60239 16.5057 3.92356L8.95199 11.5931L5.77148 12.4004L6.56661 9.17114L14.1203 1.5016Z" stroke="#333333" stroke-width="1.5" stroke-linecap="round" stroke-linejoin="round"/>
</g>
</svg>
