<svg width="17" height="16" viewBox="0 0 17 16" fill="none" xmlns="http://www.w3.org/2000/svg">
<g id="edit-05" clip-path="url(#clip0_2442_7014)">
<path id="Icon" d="M7.83301 2.66666H5.03301C3.9129 2.66666 3.35285 2.66666 2.92503 2.88464C2.5487 3.07639 2.24274 3.38235 2.05099 3.75867C1.83301 4.1865 1.83301 4.74655 1.83301 5.86666V11.4667C1.83301 12.5868 1.83301 13.1468 2.05099 13.5746C2.24274 13.951 2.5487 14.2569 2.92503 14.4487C3.35285 14.6667 3.9129 14.6667 5.03301 14.6667H10.633C11.7531 14.6667 12.3132 14.6667 12.741 14.4487C13.1173 14.2569 13.4233 13.951 13.615 13.5746C13.833 13.1468 13.833 12.5868 13.833 11.4667V8.66666M5.83299 10.6667H6.94935C7.27547 10.6667 7.43853 10.6667 7.59198 10.6298C7.72803 10.5972 7.85809 10.5433 7.97739 10.4702C8.11194 10.3877 8.22724 10.2724 8.45785 10.0418L14.833 3.66666C15.3853 3.11437 15.3853 2.21894 14.833 1.66666C14.2807 1.11437 13.3853 1.11437 12.833 1.66665L6.45783 8.04182C6.22723 8.27242 6.11193 8.38772 6.02947 8.52228C5.95637 8.64157 5.90249 8.77163 5.86983 8.90768C5.83299 9.06113 5.83299 9.22419 5.83299 9.55031V10.6667Z" stroke="black" stroke-width="1.6" stroke-linecap="round" stroke-linejoin="round"/>
</g>
<defs>
<clipPath id="clip0_2442_7014">
<rect width="16" height="16" fill="white" transform="translate(0.5)"/>
</clipPath>
</defs>
</svg>
