<svg width="120" height="24" viewBox="0 0 120 24" fill="none" xmlns="http://www.w3.org/2000/svg">
<g id="FAND_Logo_Logotype-Black 2" clip-path="url(#clip0_2057_2859)">
<g id="Group">
<path id="Vector" d="M82.6393 16.12L65.8335 0.805751C65.4628 0.469419 65.0113 0.254382 64.4926 0.168157C64.3215 0.139136 64.1487 0.125 63.979 0.125C63.641 0.125 63.3052 0.183012 62.9713 0.302001C62.5116 0.485801 62.1283 0.767865 61.8324 1.14059C61.5344 1.51789 61.3828 1.94347 61.3828 2.40547V23.5569H66.5709V7.87886L83.3751 23.2073C83.6281 23.4409 83.9247 23.6127 84.2553 23.7191C84.5771 23.8218 84.8997 23.8747 85.2159 23.8747C85.57 23.8747 85.912 23.8158 86.2322 23.6998C86.5489 23.5837 86.8274 23.423 87.0608 23.2199C87.2926 23.0175 87.4797 22.7742 87.6169 22.4982C87.7568 22.2205 87.8274 21.9156 87.8274 21.5926V0.441206H82.6393V16.12Z" fill="#100F0D"/>
<path id="Vector_2" d="M114.186 13.8508C114.186 14.6344 114.042 15.3517 113.759 15.9841C113.476 16.6144 113.071 17.1598 112.554 17.6054C112.035 18.0533 111.406 18.4052 110.686 18.6515C109.962 18.9001 109.148 19.025 108.263 19.025H98.1172V4.97348H108.263C109.148 4.97348 109.962 5.09843 110.686 5.34623C111.406 5.59331 112.035 5.94522 112.554 6.39317C113.071 6.8396 113.477 7.38791 113.759 8.0226C114.042 8.65948 114.186 9.37383 114.186 10.1477V13.8508ZM118.533 6.26074C117.972 5.07315 117.189 4.03816 116.205 3.18472C115.221 2.32987 114.036 1.65202 112.684 1.16909C111.333 0.686153 109.846 0.441406 108.263 0.441406H95.5416C95.1734 0.441406 94.826 0.500137 94.5075 0.615473C94.1886 0.731557 93.9086 0.896728 93.6768 1.10509C93.4453 1.31344 93.2612 1.559 93.1293 1.83498C92.9972 2.11109 92.9297 2.40942 92.9297 2.72341V21.2751C92.9297 21.5995 92.9972 21.9031 93.1282 22.1791C93.262 22.4567 93.4467 22.7007 93.6778 22.9023C93.9113 23.1063 94.1904 23.2677 94.5082 23.3831C94.826 23.4984 95.1734 23.5571 95.5416 23.5571H108.263C109.846 23.5571 111.334 23.3124 112.684 22.8294C114.036 22.3465 115.221 21.668 116.205 20.8138C117.189 19.9596 117.972 18.9276 118.533 17.746C119.091 16.563 119.375 15.2527 119.375 13.8508V10.1477C119.375 8.75624 119.091 7.44817 118.533 6.26074Z" fill="#100F0D"/>
<path id="Vector_3" d="M5.81233 4.97372H24.6957V0.44165H3.2374C2.86938 0.44165 2.52182 0.500381 2.20334 0.615717C1.88394 0.732609 1.60362 0.897781 1.37191 1.10605C1.14117 1.31369 0.957126 1.55924 0.824269 1.83607C0.692234 2.11202 0.625 2.41119 0.625 2.72365V23.5574H5.81233V16.3392H24.7135V11.7752H5.81233V4.97372Z" fill="#100F0D"/>
<path id="Vector_4" d="M35.0074 11.776C35.0303 10.7498 35.2089 9.86364 35.5394 9.13974C35.8964 8.35916 36.3531 7.70144 36.8988 7.18518C37.445 6.66726 38.0505 6.2565 38.6988 5.96333C39.3548 5.66572 39.9894 5.44248 40.5829 5.29743C41.1784 5.15388 41.7058 5.06308 42.1538 5.02729C42.6095 4.99162 42.9092 4.97302 43.0474 4.97302H43.048C43.1863 4.97302 43.4858 4.99162 43.9408 5.02729C44.3896 5.06308 44.9169 5.15388 45.5115 5.29743C46.106 5.44248 46.7406 5.66572 47.3964 5.96333C48.0448 6.2565 48.6503 6.66726 49.1964 7.18518C49.7423 7.70144 50.199 8.35916 50.5559 9.13974C50.8865 9.86364 51.065 10.7498 51.088 11.776H35.0074ZM52.5122 3.68355C51.3342 2.66574 49.9247 1.86283 48.3197 1.29436C46.7149 0.728852 44.9417 0.440918 43.048 0.440918H43.0474C41.1537 0.440918 39.3801 0.728852 37.7755 1.29436C36.1706 1.86283 34.7612 2.66574 33.583 3.68355C32.405 4.70288 31.4723 5.93431 30.8112 7.3458C30.1511 8.75659 29.8164 10.322 29.8164 12.0007V23.5575H35.0039V16.3393H51.0915V23.5575H56.2788V12.0007C56.2788 10.322 55.9443 8.75659 55.2843 7.3458C54.6232 5.93431 53.6903 4.70288 52.5122 3.68355Z" fill="#100F0D"/>
</g>
</g>
<defs>
<clipPath id="clip0_2057_2859">
<rect width="120" height="24" fill="white"/>
</clipPath>
</defs>
</svg>
