<svg width="32" height="32" viewBox="0 0 32 32" fill="none" xmlns="http://www.w3.org/2000/svg">
<g id="file-attachment-02">
<path id="Icon" d="M16.6667 2.66675H20.2667C22.5069 2.66675 23.627 2.66675 24.4826 3.10272C25.2353 3.48622 25.8472 4.09814 26.2307 4.85079C26.6667 5.70643 26.6667 6.82654 26.6667 9.06675V22.9334C26.6667 25.1736 26.6667 26.2937 26.2307 27.1494C25.8472 27.902 25.2353 28.5139 24.4826 28.8974C23.627 29.3334 22.5069 29.3334 20.2667 29.3334H11.7333C9.49312 29.3334 8.37302 29.3334 7.51737 28.8974C6.76472 28.5139 6.1528 27.902 5.76931 27.1494C5.33333 26.2937 5.33333 25.1736 5.33333 22.9334V22.0001M21.3333 17.3334H15.3333M21.3333 12.0001H16.6667M21.3333 22.6667H10.6667M8 13.3334V6.00008C8 4.89551 8.89543 4.00008 10 4.00008C11.1046 4.00008 12 4.89551 12 6.00008V13.3334C12 15.5426 10.2091 17.3334 8 17.3334C5.79086 17.3334 4 15.5426 4 13.3334V8.00008" stroke="black" stroke-width="2.5" stroke-linecap="round" stroke-linejoin="round"/>
</g>
</svg>
