<svg width="16" height="16" viewBox="0 0 16 16" fill="none" xmlns="http://www.w3.org/2000/svg">
<g id="file-04">
<path id="Icon" d="M9.33268 1.51314V4.26683C9.33268 4.6402 9.33268 4.82688 9.40534 4.96949C9.46926 5.09493 9.57125 5.19692 9.69669 5.26083C9.8393 5.3335 10.026 5.3335 10.3993 5.3335H13.153M13.3327 6.65898V11.4668C13.3327 12.5869 13.3327 13.147 13.1147 13.5748C12.9229 13.9511 12.617 14.2571 12.2407 14.4488C11.8128 14.6668 11.2528 14.6668 10.1327 14.6668H5.86602C4.74591 14.6668 4.18586 14.6668 3.75803 14.4488C3.38171 14.2571 3.07575 13.9511 2.884 13.5748C2.66602 13.147 2.66602 12.5869 2.66602 11.4668V4.5335C2.66602 3.41339 2.66602 2.85334 2.884 2.42552C3.07575 2.04919 3.38171 1.74323 3.75803 1.55148C4.18586 1.3335 4.74591 1.3335 5.86602 1.3335H8.0072C8.49638 1.3335 8.74097 1.3335 8.97115 1.38876C9.17522 1.43775 9.37031 1.51856 9.54925 1.62822C9.75108 1.7519 9.92404 1.92485 10.2699 2.27075L12.3954 4.39624C12.7413 4.74214 12.9143 4.91509 13.038 5.11693C13.1476 5.29587 13.2284 5.49096 13.2774 5.69503C13.3327 5.92521 13.3327 6.1698 13.3327 6.65898Z" stroke="black" stroke-width="1.33333" stroke-linecap="round" stroke-linejoin="round"/>
</g>
</svg>
