<svg width="35" height="35" viewBox="0 0 35 35" fill="none" xmlns="http://www.w3.org/2000/svg">
<g id="pajamas:media">
<path id="Vector" fill-rule="evenodd" clip-rule="evenodd" d="M28.4375 5.46875H6.5625C6.27242 5.46875 5.99422 5.58398 5.7891 5.7891C5.58398 5.99422 5.46875 6.27242 5.46875 6.5625V28.4375C5.46875 28.7276 5.58398 29.0058 5.7891 29.2109C5.99422 29.416 6.27242 29.5312 6.5625 29.5312H28.4375C28.7276 29.5312 29.0058 29.416 29.2109 29.2109C29.416 29.0058 29.5312 28.7276 29.5312 28.4375V6.5625C29.5312 6.27242 29.416 5.99422 29.2109 5.7891C29.0058 5.58398 28.7276 5.46875 28.4375 5.46875ZM6.5625 2.1875C5.40218 2.1875 4.28938 2.64844 3.46891 3.46891C2.64844 4.28938 2.1875 5.40218 2.1875 6.5625V28.4375C2.1875 29.5978 2.64844 30.7106 3.46891 31.5311C4.28938 32.3516 5.40218 32.8125 6.5625 32.8125H28.4375C29.5978 32.8125 30.7106 32.3516 31.5311 31.5311C32.3516 30.7106 32.8125 29.5978 32.8125 28.4375V6.5625C32.8125 5.40218 32.3516 4.28938 31.5311 3.46891C30.7106 2.64844 29.5978 2.1875 28.4375 2.1875H6.5625ZM26.25 23.7497L20.7812 17.5L15.365 23.6906L12.0312 19.6875L8.75 23.625V26.25H26.25V23.7497ZM14.2188 17.5C15.089 17.5 15.9236 17.1543 16.5389 16.5389C17.1543 15.9236 17.5 15.089 17.5 14.2188C17.5 13.3485 17.1543 12.5139 16.5389 11.8986C15.9236 11.2832 15.089 10.9375 14.2188 10.9375C13.3485 10.9375 12.5139 11.2832 11.8986 11.8986C11.2832 12.5139 10.9375 13.3485 10.9375 14.2188C10.9375 15.089 11.2832 15.9236 11.8986 16.5389C12.5139 17.1543 13.3485 17.5 14.2188 17.5Z" fill="#FFCC00"/>
</g>
</svg>
