<?xml version="1.0" standalone="no"?>
<!DOCTYPE svg PUBLIC "-//W3C//DTD SVG 20010904//EN"
 "http://www.w3.org/TR/2001/REC-SVG-20010904/DTD/svg10.dtd">
<svg version="1.0" xmlns="http://www.w3.org/2000/svg"
 width="24.000000pt" height="24.000000pt" viewBox="0 0 24.000000 24.000000"
 preserveAspectRatio="xMidYMid meet">

<g transform="translate(0.000000,24.000000) scale(0.100000,-0.100000)"
fill="#7D7D7D" stroke="none">
<path d="M27 203 c-4 -3 -7 -44 -7 -90 l0 -83 100 0 101 0 -3 68 c-3 64 -4 67
-29 70 -17 2 -29 11 -32 23 -4 16 -14 19 -64 19 -33 0 -63 -3 -66 -7z m113
-83 l0 -70 -50 0 -50 0 0 70 0 70 50 0 50 0 0 -70z m60 -20 c0 -43 -3 -50 -20
-50 -22 0 -27 15 -7 23 9 4 8 8 -3 16 -13 10 -13 12 0 22 11 8 12 12 3 16 -20
8 -15 23 7 23 17 0 20 -7 20 -50z"/>
<path d="M60 160 c0 -5 5 -10 10 -10 6 0 10 5 10 10 0 6 -4 10 -10 10 -5 0
-10 -4 -10 -10z"/>
<path d="M100 160 c0 -5 5 -10 10 -10 6 0 10 5 10 10 0 6 -4 10 -10 10 -5 0
-10 -4 -10 -10z"/>
<path d="M60 120 c0 -5 5 -10 10 -10 6 0 10 5 10 10 0 6 -4 10 -10 10 -5 0
-10 -4 -10 -10z"/>
<path d="M100 120 c0 -5 5 -10 10 -10 6 0 10 5 10 10 0 6 -4 10 -10 10 -5 0
-10 -4 -10 -10z"/>
<path d="M60 80 c0 -5 5 -10 10 -10 6 0 10 5 10 10 0 6 -4 10 -10 10 -5 0 -10
-4 -10 -10z"/>
<path d="M100 80 c0 -5 5 -10 10 -10 6 0 10 5 10 10 0 6 -4 10 -10 10 -5 0
-10 -4 -10 -10z"/>
</g>
</svg>
