<svg width="42" height="42" viewBox="0 0 42 42" fill="none" xmlns="http://www.w3.org/2000/svg">
<g id="Group 217">
<g id="Icon">
<path d="M20.9932 41C32.0351 41 40.9864 32.0457 40.9864 21C40.9864 9.9543 32.0351 1 20.9932 1C9.95125 1 1 9.9543 1 21C1 32.0457 9.95125 41 20.9932 41Z" fill="#FFCC00"/>
<path d="M20.9932 13V29M12.9959 21H28.9904M40.9864 21C40.9864 32.0457 32.0351 41 20.9932 41C9.95125 41 1 32.0457 1 21C1 9.9543 9.95125 1 20.9932 1C32.0351 1 40.9864 9.9543 40.9864 21Z" stroke="white" stroke-width="2" stroke-linecap="round" stroke-linejoin="round"/>
</g>
</g>
</svg>
