<?xml version="1.0" standalone="no"?>
<!DOCTYPE svg PUBLIC "-//W3C//DTD SVG 20010904//EN"
 "http://www.w3.org/TR/2001/REC-SVG-20010904/DTD/svg10.dtd">
<svg version="1.0" xmlns="http://www.w3.org/2000/svg"
 width="30.000000pt" height="30.000000pt" viewBox="0 0 30.000000 30.000000"
 preserveAspectRatio="xMidYMid meet">

<g transform="translate(0.000000,30.000000) scale(0.100000,-0.100000)"
fill="#7D7D7D" stroke="none">
<path d="M205 271 c-6 -6 -43 -11 -83 -13 -68 -3 -75 -5 -90 -30 -16 -26 -16
-30 0 -55 16 -27 20 -28 112 -31 92 -3 95 -3 83 -22 -9 -16 -9 -24 1 -40 12
-19 10 -20 -53 -20 -36 0 -74 5 -84 12 -24 15 -51 4 -51 -22 0 -26 25 -36 53
-21 12 6 53 12 90 13 63 3 70 5 85 31 16 25 16 29 0 55 -16 26 -20 27 -112 30
-92 3 -95 3 -83 22 9 16 9 24 -1 40 -12 19 -10 20 53 20 36 0 74 -5 84 -12 26
-16 53 -3 49 24 -3 25 -36 36 -53 19z m35 -21 c0 -5 -4 -10 -10 -10 -5 0 -10
5 -10 10 0 6 5 10 10 10 6 0 10 -4 10 -10z m-180 -50 c0 -5 -4 -10 -10 -10 -5
0 -10 5 -10 10 0 6 5 10 10 10 6 0 10 -4 10 -10z m200 -100 c0 -5 -4 -10 -10
-10 -5 0 -10 5 -10 10 0 6 5 10 10 10 6 0 10 -4 10 -10z m-180 -50 c0 -5 -4
-10 -10 -10 -5 0 -10 5 -10 10 0 6 5 10 10 10 6 0 10 -4 10 -10z"/>
</g>
</svg>
