<svg width="15" height="14" viewBox="0 0 15 14" fill="none" xmlns="http://www.w3.org/2000/svg">
<path d="M4.16667 1V3.26667C4.16667 3.64004 4.16667 3.82672 4.23933 3.96933C4.30324 4.09477 4.40523 4.19676 4.53067 4.26067C4.67328 4.33333 4.85997 4.33333 5.23333 4.33333H9.76667C10.14 4.33333 10.3267 4.33333 10.4693 4.26067C10.5948 4.19676 10.6968 4.09477 10.7607 3.96933C10.8333 3.82672 10.8333 3.64004 10.8333 3.26667V1.66667M10.8333 13V8.73333C10.8333 8.35997 10.8333 8.17328 10.7607 8.03067C10.6968 7.90523 10.5948 7.80324 10.4693 7.73933C10.3267 7.66667 10.14 7.66667 9.76667 7.66667H5.23333C4.85997 7.66667 4.67328 7.66667 4.53067 7.73933C4.40523 7.80324 4.30324 7.90523 4.23933 8.03067C4.16667 8.17328 4.16667 8.35997 4.16667 8.73333V13M13.5 5.21699V9.8C13.5 10.9201 13.5 11.4802 13.282 11.908C13.0903 12.2843 12.7843 12.5903 12.408 12.782C11.9802 13 11.4201 13 10.3 13H4.7C3.5799 13 3.01984 13 2.59202 12.782C2.21569 12.5903 1.90973 12.2843 1.71799 11.908C1.5 11.4802 1.5 10.9201 1.5 9.8V4.2C1.5 3.0799 1.5 2.51984 1.71799 2.09202C1.90973 1.71569 2.21569 1.40973 2.59202 1.21799C3.01984 1 3.5799 1 4.7 1H9.28301C9.60913 1 9.77219 1 9.92564 1.03684C10.0617 1.0695 10.1918 1.12337 10.311 1.19648C10.4456 1.27894 10.5609 1.39424 10.7915 1.62484L12.8752 3.7085C13.1058 3.9391 13.2211 4.0544 13.3035 4.18895C13.3766 4.30825 13.4305 4.43831 13.4632 4.57436C13.5 4.72781 13.5 4.89087 13.5 5.21699Z" stroke="black" stroke-width="1.6" stroke-linecap="round" stroke-linejoin="round"/>
</svg>
