<svg width="21" height="20" viewBox="0 0 21 20" fill="none" xmlns="http://www.w3.org/2000/svg">
<g id="send-01">
<path id="Icon" d="M9.65748 11.2501L18.4075 2.50014M9.7638 11.5235L11.9539 17.1552C12.1468 17.6513 12.2433 17.8994 12.3823 17.9718C12.5028 18.0346 12.6463 18.0347 12.7669 17.972C12.906 17.8998 13.0028 17.6518 13.1963 17.1559L18.6882 3.08281C18.8629 2.63516 18.9503 2.41133 18.9025 2.26831C18.861 2.1441 18.7635 2.04663 18.6393 2.00514C18.4963 1.95736 18.2725 2.0447 17.8248 2.21939L3.75169 7.71134C3.2558 7.90486 3.00785 8.00163 2.93559 8.14071C2.87295 8.26129 2.87304 8.40483 2.93582 8.52533C3.00824 8.66433 3.2563 8.7608 3.75242 8.95373L9.38409 11.1438C9.4848 11.183 9.53515 11.2026 9.57755 11.2328C9.61513 11.2596 9.648 11.2925 9.67481 11.3301C9.70505 11.3725 9.72463 11.4228 9.7638 11.5235Z" stroke="white" stroke-width="1.66667" stroke-linecap="round" stroke-linejoin="round"/>
</g>
</svg>
