<?xml version="1.0" standalone="no"?>
<!DOCTYPE svg PUBLIC "-//W3C//DTD SVG 20010904//EN"
 "http://www.w3.org/TR/2001/REC-SVG-20010904/DTD/svg10.dtd">
<svg version="1.0" xmlns="http://www.w3.org/2000/svg"
 width="50.000000pt" height="50.000000pt" viewBox="0 0 50.000000 50.000000"
 preserveAspectRatio="xMidYMid meet">

<g transform="translate(0.000000,50.000000) scale(0.100000,-0.100000)"
fill="#7D7D7D" stroke="none">
<path d="M160 459 c-25 -11 -56 -30 -68 -42 -31 -29 -65 -95 -58 -113 9 -24
25 -16 45 24 50 97 153 136 246 93 54 -25 84 -60 106 -123 18 -53 41 -69 47
-34 5 26 -25 101 -56 138 -35 41 -116 78 -172 78 -25 0 -65 -10 -90 -21z"/>
<path d="M25 250 c-11 -18 4 -60 21 -60 11 0 14 8 12 32 -3 32 -21 48 -33 28z"/>
<path d="M60 132 c0 -28 27 -49 43 -33 8 8 9 16 1 29 -16 25 -44 28 -44 4z"/>
<path d="M376 105 c-3 -9 1 -18 10 -22 19 -7 39 11 30 26 -10 16 -33 13 -40
-4z"/>
<path d="M140 65 c0 -8 9 -19 20 -25 16 -9 22 -8 26 4 3 8 3 20 -1 26 -9 15
-45 12 -45 -5z"/>
<path d="M313 64 c-8 -20 8 -36 26 -25 15 10 8 41 -9 41 -6 0 -13 -7 -17 -16z"/>
<path d="M230 39 c0 -14 5 -19 17 -17 26 5 29 38 4 38 -15 0 -21 -6 -21 -21z"/>
</g>
</svg>
