<?xml version="1.0" standalone="no"?>
<!DOCTYPE svg PUBLIC "-//W3C//DTD SVG 20010904//EN"
 "http://www.w3.org/TR/2001/REC-SVG-20010904/DTD/svg10.dtd">
<svg version="1.0" xmlns="http://www.w3.org/2000/svg"
 width="24.000000pt" height="24.000000pt" viewBox="0 0 24.000000 24.000000"
 preserveAspectRatio="xMidYMid meet">

<g transform="translate(0.000000,24.000000) scale(0.100000,-0.100000)"
fill="#000000" stroke="none">
<path d="M17 203 c-11 -10 -8 -143 3 -143 6 0 10 28 10 65 l0 65 80 0 c47 0
80 4 80 10 0 11 -162 14 -173 3z"/>
<path d="M54 157 c-3 -8 -4 -39 -2 -68 l3 -54 43 -3 c25 -2 42 1 42 7 0 6 -16
11 -35 11 -34 0 -35 2 -35 36 l0 36 35 -21 35 -20 35 20 c20 12 35 16 35 10 0
-6 5 -11 11 -11 6 0 9 14 7 33 l-3 32 -83 3 c-64 2 -84 0 -88 -11z m156 -11
c0 -2 -16 -13 -35 -25 l-35 -20 -35 20 c-19 12 -35 23 -35 25 0 2 32 4 70 4
39 0 70 -2 70 -4z"/>
<path d="M190 65 c0 -8 -7 -15 -15 -15 -8 0 -15 -4 -15 -10 0 -5 7 -10 15 -10
8 0 15 -7 15 -15 0 -8 5 -15 10 -15 6 0 10 7 10 15 0 8 7 15 15 15 8 0 15 5
15 10 0 6 -7 10 -15 10 -8 0 -15 7 -15 15 0 8 -4 15 -10 15 -5 0 -10 -7 -10
-15z"/>
</g>
</svg>
