<?xml version="1.0" standalone="no"?>
<!DOCTYPE svg PUBLIC "-//W3C//DTD SVG 20010904//EN"
 "http://www.w3.org/TR/2001/REC-SVG-20010904/DTD/svg10.dtd">
<svg version="1.0" xmlns="http://www.w3.org/2000/svg"
 width="48.000000pt" height="48.000000pt" viewBox="0 0 48.000000 48.000000"
 preserveAspectRatio="xMidYMid meet">

<g transform="translate(0.000000,48.000000) scale(0.100000,-0.100000)"
fill="#7D7D7D" stroke="none">
<path d="M253 410 c-40 -24 -65 -71 -61 -116 2 -30 -5 -41 -65 -102 -70 -71
-80 -97 -49 -125 31 -29 54 -19 124 50 61 60 72 67 102 65 91 -8 171 106 122
174 -14 18 -16 17 -60 -26 -36 -34 -49 -41 -58 -32 -9 9 -2 22 32 58 43 44 44
46 26 60 -28 20 -75 17 -113 -6z m48 -45 c-34 -40 -39 -66 -15 -89 24 -24 50
-19 90 17 l37 32 -7 -35 c-10 -54 -38 -75 -96 -75 -48 0 -52 -2 -119 -69 -47
-47 -74 -67 -85 -63 -28 11 -17 31 54 102 65 65 69 71 64 105 -8 58 34 109 90
110 15 0 13 -5 -13 -35z"/>
</g>
</svg>
