<svg width="16" height="16" viewBox="0 0 16 16" fill="none" xmlns="http://www.w3.org/2000/svg">
<g id="film-02" clip-path="url(#clip0_2775_2136)">
<path id="Icon" d="M8.00065 14.6668V1.3335M4.66732 14.6668V11.3335M4.66732 4.66683V1.3335M11.334 14.6668V11.3335M11.334 4.66683V1.3335M1.33398 4.66683H14.6673M1.33398 11.3335H14.6673M14.6673 11.4668V4.5335C14.6673 3.41339 14.6673 2.85334 14.4493 2.42551C14.2576 2.04919 13.9516 1.74323 13.5753 1.55148C13.1475 1.3335 12.5874 1.3335 11.4673 1.3335L4.53398 1.3335C3.41388 1.3335 2.85383 1.3335 2.426 1.55148C2.04968 1.74323 1.74372 2.04919 1.55197 2.42552C1.33398 2.85334 1.33398 3.41339 1.33398 4.5335L1.33398 11.4668C1.33398 12.5869 1.33398 13.147 1.55197 13.5748C1.74372 13.9511 2.04968 14.2571 2.426 14.4488C2.85383 14.6668 3.41388 14.6668 4.53398 14.6668H11.4673C12.5874 14.6668 13.1475 14.6668 13.5753 14.4488C13.9516 14.2571 14.2576 13.9511 14.4493 13.5748C14.6673 13.147 14.6673 12.5869 14.6673 11.4668Z" stroke="black" stroke-width="1.33333" stroke-linecap="round" stroke-linejoin="round"/>
</g>
<defs>
<clipPath id="clip0_2775_2136">
<rect width="16" height="16" fill="white"/>
</clipPath>
</defs>
</svg>
